<svg width="1800" height="1200" viewBox="0 0 1800 1200" fill="none" xmlns="http://www.w3.org/2000/svg">
<g clip-path="url(#clip0_10_9)">
<path fill-rule="evenodd" clip-rule="evenodd" d="M0 0L-5.24537e-05 1200L1800 1200L1800 7.86805e-05L0 0ZM1020 640L1020 1120L1660 1120L1660 640L1020 640ZM300 1120L300 640L940 640L940 1120L300 1120ZM860 80L860 560L1500 560L1500 80.0001L860 80ZM140 560L140 80L780 80L780 560L140 560Z" fill="black"/>
</g>
<defs>
<clipPath id="clip0_10_9">
<rect width="1200" height="1800" fill="white" transform="matrix(-4.37114e-08 1 1 4.37114e-08 0 0)"/>
</clipPath>
</defs>
</svg>
