<svg width="1200" height="1800" viewBox="0 0 1200 1800" fill="none" xmlns="http://www.w3.org/2000/svg">
<g clip-path="url(#clip0_1_2)">
<rect width="1200" height="1800" fill="white"/>
<path fill-rule="evenodd" clip-rule="evenodd" d="M0 0H1200V1800H0V0ZM610 920H1180V1680H610V920ZM1180 140H610V900H1180V140ZM20 800H590V1560H20V800ZM590 20H20V780H590V20Z" fill="#26a69a"/>
<path d="M191.45 1697.41H243.866V1701.82H191.45V1697.41ZM214.81 1682.43H220.122V1699.39H214.81V1682.43ZM195.994 1656.64H238.938V1660.99H195.994V1656.64ZM196.122 1679.94H238.874V1684.22H196.122V1679.94ZM205.018 1660.16H210.33V1680.7H205.018V1660.16ZM224.73 1660.16H229.978V1680.7H224.73V1660.16ZM257.045 1681.15H296.789V1685.44H257.045V1681.15ZM250.325 1697.41H302.741V1701.82H250.325V1697.41ZM273.813 1683.39H279.061V1699.46H273.813V1683.39ZM257.045 1655.81H296.149V1660.16H262.421V1682.75H257.045V1655.81ZM260.693 1668.22H294.933V1672.51H260.693V1668.22ZM327.2 1697.47H379.616V1701.89H327.2V1697.47ZM350.624 1685.06H355.936V1699.33H350.624V1685.06ZM333.536 1655.42H373.152V1672.96H338.976V1684.54H333.728V1668.67H367.904V1659.71H333.536V1655.42ZM333.728 1682.3H374.496V1686.66H333.728V1682.3ZM391.707 1657.28H428.955V1661.57H391.707V1657.28ZM386.075 1696.13H438.363V1700.54H386.075V1696.13ZM426.139 1657.28H431.323V1663.04C431.323 1670.46 431.323 1678.72 429.147 1691.2L423.835 1690.69C426.139 1678.85 426.139 1670.21 426.139 1663.04V1657.28Z" fill="white"/>
<path d="M1038.88 1724V1722.4L1044.88 1715.83C1045.59 1715.06 1046.17 1714.39 1046.62 1713.83C1047.08 1713.25 1047.42 1712.71 1047.64 1712.21C1047.86 1711.7 1047.97 1711.17 1047.97 1710.61C1047.97 1709.97 1047.82 1709.42 1047.51 1708.95C1047.21 1708.48 1046.8 1708.12 1046.27 1707.87C1045.74 1707.61 1045.15 1707.49 1044.49 1707.49C1043.79 1707.49 1043.18 1707.63 1042.66 1707.92C1042.15 1708.21 1041.75 1708.61 1041.47 1709.12C1041.19 1709.64 1041.05 1710.24 1041.05 1710.93H1038.95C1038.95 1709.87 1039.2 1708.93 1039.69 1708.13C1040.18 1707.32 1040.85 1706.69 1041.7 1706.24C1042.55 1705.79 1043.5 1705.57 1044.56 1705.57C1045.63 1705.57 1046.57 1705.79 1047.4 1706.24C1048.22 1706.69 1048.86 1707.3 1049.33 1708.06C1049.8 1708.83 1050.03 1709.68 1050.03 1710.61C1050.03 1711.28 1049.91 1711.94 1049.67 1712.57C1049.43 1713.21 1049.02 1713.91 1048.43 1714.7C1047.84 1715.47 1047.03 1716.42 1045.98 1717.54L1041.9 1721.9V1722.05H1050.35V1724H1038.88ZM1059.95 1724.25C1058.61 1724.25 1057.47 1723.88 1056.53 1723.16C1055.59 1722.42 1054.87 1721.36 1054.37 1719.97C1053.88 1718.57 1053.63 1716.89 1053.63 1714.91C1053.63 1712.94 1053.88 1711.27 1054.37 1709.88C1054.88 1708.48 1055.6 1707.41 1056.54 1706.68C1057.49 1705.94 1058.62 1705.57 1059.95 1705.57C1061.27 1705.57 1062.41 1705.94 1063.35 1706.68C1064.3 1707.41 1065.02 1708.48 1065.52 1709.88C1066.02 1711.27 1066.27 1712.94 1066.27 1714.91C1066.27 1716.89 1066.02 1718.57 1065.52 1719.97C1065.03 1721.36 1064.31 1722.42 1063.37 1723.16C1062.43 1723.88 1061.29 1724.25 1059.95 1724.25ZM1059.95 1722.3C1061.27 1722.3 1062.3 1721.66 1063.04 1720.38C1063.77 1719.1 1064.14 1717.28 1064.14 1714.91C1064.14 1713.33 1063.97 1711.99 1063.63 1710.89C1063.3 1709.78 1062.82 1708.94 1062.2 1708.36C1061.57 1707.78 1060.83 1707.49 1059.95 1707.49C1058.64 1707.49 1057.61 1708.14 1056.87 1709.43C1056.13 1710.72 1055.76 1712.55 1055.76 1714.91C1055.76 1716.48 1055.92 1717.82 1056.26 1718.92C1056.59 1720.02 1057.06 1720.86 1057.69 1721.43C1058.31 1722.01 1059.07 1722.3 1059.95 1722.3ZM1069.64 1724V1722.4L1075.65 1715.83C1076.35 1715.06 1076.93 1714.39 1077.39 1713.83C1077.84 1713.25 1078.18 1712.71 1078.4 1712.21C1078.62 1711.7 1078.73 1711.17 1078.73 1710.61C1078.73 1709.97 1078.58 1709.42 1078.27 1708.95C1077.97 1708.48 1077.56 1708.12 1077.03 1707.87C1076.5 1707.61 1075.91 1707.49 1075.25 1707.49C1074.56 1707.49 1073.95 1707.63 1073.43 1707.92C1072.91 1708.21 1072.51 1708.61 1072.23 1709.12C1071.95 1709.64 1071.81 1710.24 1071.81 1710.93H1069.71C1069.71 1709.87 1069.96 1708.93 1070.45 1708.13C1070.94 1707.32 1071.61 1706.69 1072.46 1706.24C1073.31 1705.79 1074.27 1705.57 1075.33 1705.57C1076.39 1705.57 1077.33 1705.79 1078.16 1706.24C1078.98 1706.69 1079.63 1707.3 1080.09 1708.06C1080.56 1708.83 1080.79 1709.68 1080.79 1710.61C1080.79 1711.28 1080.67 1711.94 1080.43 1712.57C1080.19 1713.21 1079.78 1713.91 1079.19 1714.7C1078.6 1715.47 1077.79 1716.42 1076.75 1717.54L1072.66 1721.9V1722.05H1081.11V1724H1069.64ZM1090.92 1724.25C1089.75 1724.25 1088.71 1724.05 1087.79 1723.64C1086.88 1723.24 1086.15 1722.68 1085.62 1721.97C1085.08 1721.24 1084.79 1720.41 1084.75 1719.45H1086.98C1087.03 1720.04 1087.23 1720.55 1087.59 1720.97C1087.94 1721.39 1088.41 1721.72 1088.98 1721.95C1089.55 1722.18 1090.19 1722.3 1090.89 1722.3C1091.67 1722.3 1092.36 1722.16 1092.97 1721.89C1093.57 1721.61 1094.04 1721.24 1094.39 1720.75C1094.73 1720.27 1094.9 1719.7 1094.9 1719.06C1094.9 1718.4 1094.74 1717.81 1094.4 1717.3C1094.07 1716.78 1093.59 1716.38 1092.95 1716.09C1092.31 1715.8 1091.53 1715.65 1090.6 1715.65H1089.15V1713.7H1090.6C1091.33 1713.7 1091.96 1713.57 1092.5 1713.31C1093.05 1713.05 1093.48 1712.68 1093.79 1712.21C1094.11 1711.74 1094.26 1711.18 1094.26 1710.54C1094.26 1709.93 1094.13 1709.39 1093.85 1708.93C1093.58 1708.48 1093.2 1708.12 1092.7 1707.87C1092.21 1707.61 1091.63 1707.49 1090.96 1707.49C1090.33 1707.49 1089.74 1707.6 1089.18 1707.83C1088.63 1708.06 1088.18 1708.39 1087.83 1708.82C1087.49 1709.25 1087.3 1709.76 1087.27 1710.36H1085.14C1085.17 1709.41 1085.46 1708.58 1086 1707.86C1086.54 1707.14 1087.24 1706.58 1088.11 1706.17C1088.99 1705.77 1089.95 1705.57 1091 1705.57C1092.12 1705.57 1093.08 1705.8 1093.89 1706.25C1094.69 1706.7 1095.31 1707.3 1095.74 1708.04C1096.18 1708.78 1096.39 1709.58 1096.39 1710.43C1096.39 1711.46 1096.12 1712.33 1095.58 1713.05C1095.05 1713.78 1094.33 1714.28 1093.41 1714.55V1714.7C1094.56 1714.89 1095.45 1715.37 1096.1 1716.16C1096.74 1716.94 1097.07 1717.91 1097.07 1719.06C1097.07 1720.05 1096.8 1720.94 1096.26 1721.73C1095.73 1722.51 1095 1723.12 1094.08 1723.57C1093.15 1724.02 1092.1 1724.25 1090.92 1724.25ZM1101.7 1724.14C1101.26 1724.14 1100.89 1723.99 1100.57 1723.67C1100.26 1723.36 1100.1 1722.98 1100.1 1722.54C1100.1 1722.11 1100.26 1721.73 1100.57 1721.42C1100.89 1721.1 1101.26 1720.95 1101.7 1720.95C1102.14 1720.95 1102.51 1721.1 1102.83 1721.42C1103.14 1721.73 1103.3 1722.11 1103.3 1722.54C1103.3 1722.83 1103.22 1723.1 1103.08 1723.34C1102.93 1723.59 1102.74 1723.78 1102.5 1723.93C1102.26 1724.07 1102 1724.14 1101.7 1724.14ZM1120.45 1705.82V1724H1118.24V1708.13H1118.14L1113.7 1711.07V1708.84L1118.24 1705.82H1120.45ZM1131.6 1724.25C1130.27 1724.25 1129.13 1723.88 1128.19 1723.16C1127.25 1722.42 1126.53 1721.36 1126.03 1719.97C1125.53 1718.57 1125.28 1716.89 1125.28 1714.91C1125.28 1712.94 1125.53 1711.27 1126.03 1709.88C1126.53 1708.48 1127.25 1707.41 1128.2 1706.68C1129.14 1705.94 1130.28 1705.57 1131.6 1705.57C1132.93 1705.57 1134.06 1705.94 1135 1706.68C1135.95 1707.41 1136.67 1708.48 1137.17 1709.88C1137.67 1711.27 1137.93 1712.94 1137.93 1714.91C1137.93 1716.89 1137.68 1718.57 1137.18 1719.97C1136.68 1721.36 1135.96 1722.42 1135.02 1723.16C1134.08 1723.88 1132.94 1724.25 1131.6 1724.25ZM1131.6 1722.3C1132.93 1722.3 1133.96 1721.66 1134.69 1720.38C1135.43 1719.1 1135.79 1717.28 1135.79 1714.91C1135.79 1713.33 1135.63 1711.99 1135.29 1710.89C1134.96 1709.78 1134.48 1708.94 1133.85 1708.36C1133.23 1707.78 1132.48 1707.49 1131.6 1707.49C1130.29 1707.49 1129.26 1708.14 1128.52 1709.43C1127.78 1710.72 1127.41 1712.55 1127.41 1714.91C1127.41 1716.48 1127.58 1717.82 1127.91 1718.92C1128.24 1720.02 1128.72 1720.86 1129.34 1721.43C1129.97 1722.01 1130.72 1722.3 1131.6 1722.3ZM1142.23 1724.14C1141.79 1724.14 1141.41 1723.99 1141.1 1723.67C1140.79 1723.36 1140.63 1722.98 1140.63 1722.54C1140.63 1722.11 1140.79 1721.73 1141.1 1721.42C1141.41 1721.1 1141.79 1720.95 1142.23 1720.95C1142.66 1720.95 1143.04 1721.1 1143.35 1721.42C1143.67 1721.73 1143.82 1722.11 1143.82 1722.54C1143.82 1722.83 1143.75 1723.1 1143.6 1723.34C1143.46 1723.59 1143.27 1723.78 1143.03 1723.93C1142.79 1724.07 1142.52 1724.14 1142.23 1724.14ZM1160.97 1705.82V1724H1158.77V1708.13H1158.66L1154.23 1711.07V1708.84L1158.77 1705.82H1160.97ZM1172.24 1724.25C1171.49 1724.24 1170.75 1724.09 1170 1723.82C1169.26 1723.55 1168.57 1723.09 1167.96 1722.45C1167.34 1721.8 1166.85 1720.92 1166.48 1719.81C1166.1 1718.7 1165.92 1717.3 1165.92 1715.62C1165.92 1714.01 1166.07 1712.58 1166.37 1711.34C1166.67 1710.09 1167.11 1709.04 1167.68 1708.19C1168.26 1707.33 1168.95 1706.68 1169.76 1706.24C1170.58 1705.79 1171.5 1705.57 1172.52 1705.57C1173.54 1705.57 1174.45 1705.77 1175.24 1706.18C1176.04 1706.58 1176.69 1707.15 1177.19 1707.87C1177.7 1708.59 1178.02 1709.42 1178.17 1710.36H1176C1175.8 1709.55 1175.41 1708.87 1174.83 1708.33C1174.25 1707.79 1173.48 1707.52 1172.52 1707.52C1171.11 1707.52 1170 1708.14 1169.19 1709.36C1168.39 1710.59 1167.98 1712.3 1167.98 1714.52H1168.12C1168.45 1714.02 1168.84 1713.59 1169.3 1713.23C1169.76 1712.87 1170.27 1712.59 1170.83 1712.4C1171.38 1712.2 1171.97 1712.1 1172.59 1712.1C1173.64 1712.1 1174.59 1712.36 1175.45 1712.88C1176.32 1713.4 1177.01 1714.11 1177.53 1715.02C1178.05 1715.93 1178.31 1716.97 1178.31 1718.14C1178.31 1719.27 1178.06 1720.29 1177.56 1721.23C1177.05 1722.16 1176.35 1722.9 1175.43 1723.45C1174.53 1723.99 1173.46 1724.26 1172.24 1724.25ZM1172.24 1722.3C1172.98 1722.3 1173.65 1722.11 1174.24 1721.74C1174.84 1721.36 1175.31 1720.86 1175.66 1720.24C1176.01 1719.61 1176.18 1718.91 1176.18 1718.14C1176.18 1717.39 1176.01 1716.71 1175.67 1716.09C1175.34 1715.47 1174.88 1714.97 1174.3 1714.61C1173.72 1714.24 1173.06 1714.06 1172.31 1714.06C1171.75 1714.06 1171.22 1714.17 1170.74 1714.39C1170.25 1714.61 1169.83 1714.92 1169.46 1715.3C1169.1 1715.68 1168.81 1716.13 1168.61 1716.62C1168.4 1717.11 1168.3 1717.63 1168.3 1718.18C1168.3 1718.9 1168.47 1719.57 1168.8 1720.2C1169.15 1720.83 1169.61 1721.33 1170.21 1721.72C1170.8 1722.1 1171.48 1722.3 1172.24 1722.3Z" fill="white"/>
</g>
<defs>
<clipPath id="clip0_1_2">
<rect width="1200" height="1800" fill="white"/>
</clipPath>
</defs>
</svg>
