<svg width="600" height="1800" viewBox="0 0 600 1800" fill="none" xmlns="http://www.w3.org/2000/svg">
<g clip-path="url(#clip0_5_2)">
<rect width="600" height="1800" fill="white"/>
<path fill-rule="evenodd" clip-rule="evenodd" d="M0 0H600V1800H0V0ZM20 1199H580V1572H20V1199ZM580 806H20V1179H580V806ZM20 413H580V786H20V413ZM580 20H20V393H580V20Z" fill="#26a69a"/>
<path d="M176.45 1720.41H228.866V1724.82H176.45V1720.41ZM199.81 1705.43H205.122V1722.39H199.81V1705.43ZM180.994 1679.64H223.938V1683.99H180.994V1679.64ZM181.122 1702.94H223.874V1707.22H181.122V1702.94ZM190.018 1683.16H195.33V1703.7H190.018V1683.16ZM209.73 1683.16H214.978V1703.7H209.73V1683.16ZM242.045 1704.15H281.789V1708.44H242.045V1704.15ZM235.325 1720.41H287.741V1724.82H235.325V1720.41ZM258.813 1706.39H264.061V1722.46H258.813V1706.39ZM242.045 1678.81H281.149V1683.16H247.421V1705.75H242.045V1678.81ZM245.693 1691.22H279.933V1695.51H245.693V1691.22ZM312.2 1720.47H364.616V1724.89H312.2V1720.47ZM335.624 1708.06H340.936V1722.33H335.624V1708.06ZM318.536 1678.42H358.152V1695.96H323.976V1707.54H318.728V1691.67H352.904V1682.71H318.536V1678.42ZM318.728 1705.3H359.496V1709.66H318.728V1705.3ZM376.707 1680.28H413.955V1684.57H376.707V1680.28ZM371.075 1719.13H423.363V1723.54H371.075V1719.13ZM411.139 1680.28H416.323V1686.04C416.323 1693.46 416.323 1701.72 414.147 1714.2L408.835 1713.69C411.139 1701.85 411.139 1693.21 411.139 1686.04V1680.28Z" fill="white"/>
<path d="M438.882 1616V1614.4L444.884 1607.83C445.588 1607.06 446.168 1606.39 446.624 1605.83C447.079 1605.25 447.417 1604.71 447.636 1604.21C447.861 1603.7 447.973 1603.17 447.973 1602.61C447.973 1601.97 447.819 1601.42 447.511 1600.95C447.21 1600.48 446.795 1600.12 446.268 1599.87C445.742 1599.61 445.15 1599.49 444.493 1599.49C443.795 1599.49 443.185 1599.63 442.664 1599.92C442.149 1600.21 441.75 1600.61 441.466 1601.12C441.187 1601.64 441.048 1602.24 441.048 1602.93H438.953C438.953 1601.87 439.199 1600.93 439.69 1600.13C440.181 1599.32 440.85 1598.69 441.696 1598.24C442.549 1597.79 443.504 1597.57 444.564 1597.57C445.629 1597.57 446.573 1597.79 447.396 1598.24C448.219 1598.69 448.864 1599.3 449.331 1600.06C449.799 1600.83 450.033 1601.68 450.033 1602.61C450.033 1603.28 449.911 1603.94 449.669 1604.57C449.432 1605.21 449.018 1605.91 448.426 1606.7C447.84 1607.47 447.026 1608.42 445.984 1609.54L441.901 1613.9V1614.05H450.352V1616H438.882ZM459.949 1616.25C458.612 1616.25 457.472 1615.88 456.531 1615.16C455.59 1614.42 454.871 1613.36 454.374 1611.97C453.877 1610.57 453.628 1608.89 453.628 1606.91C453.628 1604.94 453.877 1603.27 454.374 1601.88C454.877 1600.48 455.599 1599.41 456.54 1598.68C457.487 1597.94 458.623 1597.57 459.949 1597.57C461.275 1597.57 462.408 1597.94 463.349 1598.68C464.296 1599.41 465.018 1600.48 465.516 1601.88C466.019 1603.27 466.27 1604.94 466.27 1606.91C466.27 1608.89 466.022 1610.57 465.525 1611.97C465.027 1613.36 464.308 1614.42 463.367 1615.16C462.426 1615.88 461.287 1616.25 459.949 1616.25ZM459.949 1614.3C461.275 1614.3 462.305 1613.66 463.039 1612.38C463.773 1611.1 464.14 1609.28 464.14 1606.91C464.14 1605.33 463.971 1603.99 463.634 1602.89C463.302 1601.78 462.823 1600.94 462.195 1600.36C461.574 1599.78 460.825 1599.49 459.949 1599.49C458.635 1599.49 457.608 1600.14 456.869 1601.43C456.129 1602.72 455.759 1604.55 455.759 1606.91C455.759 1608.48 455.925 1609.82 456.256 1610.92C456.587 1612.02 457.064 1612.86 457.685 1613.43C458.313 1614.01 459.067 1614.3 459.949 1614.3ZM469.644 1616V1614.4L475.645 1607.83C476.35 1607.06 476.93 1606.39 477.385 1605.83C477.841 1605.25 478.178 1604.71 478.397 1604.21C478.622 1603.7 478.735 1603.17 478.735 1602.61C478.735 1601.97 478.581 1601.42 478.273 1600.95C477.971 1600.48 477.557 1600.12 477.03 1599.87C476.503 1599.61 475.912 1599.49 475.255 1599.49C474.556 1599.49 473.947 1599.63 473.426 1599.92C472.911 1600.21 472.511 1600.61 472.227 1601.12C471.949 1601.64 471.81 1602.24 471.81 1602.93H469.715C469.715 1601.87 469.96 1600.93 470.452 1600.13C470.943 1599.32 471.612 1598.69 472.458 1598.24C473.31 1597.79 474.266 1597.57 475.326 1597.57C476.391 1597.57 477.335 1597.79 478.158 1598.24C478.98 1598.69 479.625 1599.3 480.093 1600.06C480.561 1600.83 480.794 1601.68 480.794 1602.61C480.794 1603.28 480.673 1603.94 480.43 1604.57C480.194 1605.21 479.779 1605.91 479.188 1606.7C478.602 1607.47 477.788 1608.42 476.746 1609.54L472.662 1613.9V1614.05H481.114V1616H469.644ZM490.924 1616.25C489.752 1616.25 488.708 1616.05 487.79 1615.64C486.879 1615.24 486.154 1614.68 485.615 1613.97C485.082 1613.24 484.792 1612.41 484.745 1611.45H486.982C487.03 1612.04 487.231 1612.55 487.586 1612.97C487.941 1613.39 488.406 1613.72 488.98 1613.95C489.554 1614.18 490.19 1614.3 490.888 1614.3C491.67 1614.3 492.362 1614.16 492.966 1613.89C493.57 1613.61 494.043 1613.24 494.386 1612.75C494.73 1612.27 494.901 1611.7 494.901 1611.06C494.901 1610.4 494.736 1609.81 494.404 1609.3C494.073 1608.78 493.587 1608.38 492.948 1608.09C492.309 1607.8 491.528 1607.65 490.604 1607.65H489.148V1605.7H490.604C491.326 1605.7 491.96 1605.57 492.504 1605.31C493.055 1605.05 493.484 1604.68 493.792 1604.21C494.105 1603.74 494.262 1603.18 494.262 1602.54C494.262 1601.93 494.126 1601.39 493.854 1600.93C493.581 1600.48 493.197 1600.12 492.7 1599.87C492.208 1599.61 491.628 1599.49 490.96 1599.49C490.332 1599.49 489.74 1599.6 489.184 1599.83C488.634 1600.06 488.184 1600.39 487.835 1600.82C487.485 1601.25 487.296 1601.76 487.266 1602.36H485.136C485.171 1601.41 485.458 1600.58 485.997 1599.86C486.535 1599.14 487.24 1598.58 488.11 1598.17C488.986 1597.77 489.947 1597.57 490.995 1597.57C492.12 1597.57 493.084 1597.8 493.889 1598.25C494.694 1598.7 495.313 1599.3 495.745 1600.04C496.177 1600.78 496.393 1601.58 496.393 1602.43C496.393 1603.46 496.123 1604.33 495.585 1605.05C495.052 1605.78 494.327 1606.28 493.41 1606.55V1606.7C494.558 1606.89 495.455 1607.37 496.1 1608.16C496.745 1608.94 497.067 1609.91 497.067 1611.06C497.067 1612.05 496.798 1612.94 496.26 1613.73C495.727 1614.51 494.999 1615.12 494.076 1615.57C493.152 1616.02 492.102 1616.25 490.924 1616.25ZM501.699 1616.14C501.262 1616.14 500.886 1615.99 500.572 1615.67C500.258 1615.36 500.101 1614.98 500.101 1614.54C500.101 1614.11 500.258 1613.73 500.572 1613.42C500.886 1613.1 501.262 1612.95 501.699 1612.95C502.137 1612.95 502.513 1613.1 502.827 1613.42C503.141 1613.73 503.297 1614.11 503.297 1614.54C503.297 1614.83 503.224 1615.1 503.076 1615.34C502.934 1615.59 502.741 1615.78 502.498 1615.93C502.262 1616.07 501.995 1616.14 501.699 1616.14ZM520.445 1597.82V1616H518.243V1600.13H518.137L513.698 1603.07V1600.84L518.243 1597.82H520.445ZM531.604 1616.25C530.267 1616.25 529.128 1615.88 528.187 1615.16C527.245 1614.42 526.526 1613.36 526.029 1611.97C525.532 1610.57 525.283 1608.89 525.283 1606.91C525.283 1604.94 525.532 1603.27 526.029 1601.88C526.532 1600.48 527.254 1599.41 528.195 1598.68C529.142 1597.94 530.279 1597.57 531.604 1597.57C532.93 1597.57 534.064 1597.94 535.005 1598.68C535.952 1599.41 536.674 1600.48 537.171 1601.88C537.674 1603.27 537.926 1604.94 537.926 1606.91C537.926 1608.89 537.677 1610.57 537.18 1611.97C536.683 1613.36 535.964 1614.42 535.022 1615.16C534.081 1615.88 532.942 1616.25 531.604 1616.25ZM531.604 1614.3C532.93 1614.3 533.96 1613.66 534.694 1612.38C535.428 1611.1 535.795 1609.28 535.795 1606.91C535.795 1605.33 535.626 1603.99 535.289 1602.89C534.957 1601.78 534.478 1600.94 533.851 1600.36C533.229 1599.78 532.48 1599.49 531.604 1599.49C530.291 1599.49 529.264 1600.14 528.524 1601.43C527.784 1602.72 527.414 1604.55 527.414 1606.91C527.414 1608.48 527.58 1609.82 527.911 1610.92C528.243 1612.02 528.719 1612.86 529.341 1613.43C529.968 1614.01 530.723 1614.3 531.604 1614.3ZM542.227 1616.14C541.789 1616.14 541.413 1615.99 541.099 1615.67C540.786 1615.36 540.629 1614.98 540.629 1614.54C540.629 1614.11 540.786 1613.73 541.099 1613.42C541.413 1613.1 541.789 1612.95 542.227 1612.95C542.665 1612.95 543.041 1613.1 543.354 1613.42C543.668 1613.73 543.825 1614.11 543.825 1614.54C543.825 1614.83 543.751 1615.1 543.603 1615.34C543.461 1615.59 543.268 1615.78 543.026 1615.93C542.789 1616.07 542.523 1616.14 542.227 1616.14ZM560.972 1597.82V1616H558.771V1600.13H558.664L554.225 1603.07V1600.84L558.771 1597.82H560.972ZM572.238 1616.25C571.493 1616.24 570.747 1616.09 570.001 1615.82C569.255 1615.55 568.575 1615.09 567.959 1614.45C567.344 1613.8 566.85 1612.92 566.477 1611.81C566.104 1610.7 565.917 1609.3 565.917 1607.62C565.917 1606.01 566.068 1604.58 566.37 1603.34C566.672 1602.09 567.11 1601.04 567.684 1600.19C568.258 1599.33 568.951 1598.68 569.761 1598.24C570.578 1597.79 571.499 1597.57 572.522 1597.57C573.54 1597.57 574.446 1597.77 575.239 1598.18C576.038 1598.58 576.689 1599.15 577.192 1599.87C577.695 1600.59 578.021 1601.42 578.169 1602.36H576.003C575.801 1601.55 575.411 1600.87 574.831 1600.33C574.251 1599.79 573.481 1599.52 572.522 1599.52C571.114 1599.52 570.004 1600.14 569.193 1601.36C568.388 1602.59 567.983 1604.3 567.977 1606.52H568.119C568.45 1606.02 568.844 1605.59 569.3 1605.23C569.761 1604.87 570.27 1604.59 570.827 1604.4C571.383 1604.2 571.972 1604.1 572.593 1604.1C573.635 1604.1 574.588 1604.36 575.452 1604.88C576.316 1605.4 577.009 1606.11 577.53 1607.02C578.05 1607.93 578.311 1608.97 578.311 1610.14C578.311 1611.27 578.059 1612.29 577.556 1613.23C577.053 1614.16 576.346 1614.9 575.434 1615.45C574.529 1615.99 573.464 1616.26 572.238 1616.25ZM572.238 1614.3C572.984 1614.3 573.653 1614.11 574.245 1613.74C574.843 1613.36 575.313 1612.86 575.656 1612.24C576.006 1611.61 576.18 1610.91 576.18 1610.14C576.18 1609.39 576.011 1608.71 575.674 1608.09C575.343 1607.47 574.884 1606.97 574.298 1606.61C573.718 1606.24 573.055 1606.06 572.309 1606.06C571.747 1606.06 571.223 1606.17 570.738 1606.39C570.253 1606.61 569.827 1606.92 569.46 1607.3C569.099 1607.68 568.814 1608.13 568.607 1608.62C568.4 1609.11 568.297 1609.63 568.297 1610.18C568.297 1610.9 568.465 1611.57 568.803 1612.2C569.146 1612.83 569.613 1613.33 570.205 1613.72C570.803 1614.1 571.481 1614.3 572.238 1614.3Z" fill="white"/>
</g>
<defs>
<clipPath id="clip0_5_2">
<rect width="600" height="1800" fill="white"/>
</clipPath>
</defs>
</svg>
