<svg width="1800" height="1200" viewBox="0 0 1800 1200" fill="none" xmlns="http://www.w3.org/2000/svg">
<g clip-path="url(#clip0_203_70)">
<rect width="1200" height="1800" transform="translate(0 1200) rotate(-90)" fill="white"/>
<path fill-rule="evenodd" clip-rule="evenodd" d="M0 1200L1.43099e-05 0L1800 2.14648e-05L1800 1200L0 1200ZM20 1050L20 20L890 20L890 1050L20 1050ZM910 20L910 1050L1780 1050L1780 20L910 20Z" fill="#26a69a"/>
<path d="M776.45 1141.41L828.866 1141.41L828.866 1145.82L776.45 1145.82L776.45 1141.41ZM799.81 1126.43L805.122 1126.43L805.122 1143.39L799.81 1143.39L799.81 1126.43ZM780.994 1100.64L823.938 1100.64L823.938 1104.99L780.994 1104.99L780.994 1100.64ZM781.122 1123.94L823.874 1123.94L823.874 1128.22L781.122 1128.22L781.122 1123.94ZM790.018 1104.16L795.33 1104.16L795.33 1124.7L790.018 1124.7L790.018 1104.16ZM809.73 1104.16L814.978 1104.16L814.978 1124.7L809.73 1124.7L809.73 1104.16ZM842.045 1125.15L881.789 1125.15L881.789 1129.44L842.045 1129.44L842.045 1125.15ZM835.325 1141.41L887.741 1141.41L887.741 1145.82L835.325 1145.82L835.325 1141.41ZM858.813 1127.39L864.061 1127.39L864.061 1143.46L858.813 1143.46L858.813 1127.39ZM842.045 1099.81L881.149 1099.81L881.149 1104.16L847.421 1104.16L847.421 1126.75L842.045 1126.75L842.045 1099.81ZM845.693 1112.22L879.933 1112.22L879.933 1116.51L845.693 1116.51L845.693 1112.22ZM912.2 1141.47L964.616 1141.47L964.616 1145.89L912.2 1145.89L912.2 1141.47ZM935.624 1129.06L940.936 1129.06L940.936 1143.33L935.624 1143.33L935.624 1129.06ZM918.536 1099.42L958.152 1099.42L958.152 1116.96L923.976 1116.96L923.976 1128.54L918.728 1128.54L918.728 1112.67L952.904 1112.67L952.904 1103.71L918.536 1103.71L918.536 1099.42ZM918.728 1126.3L959.496 1126.3L959.496 1130.66L918.728 1130.66L918.728 1126.3ZM976.707 1101.28L1013.96 1101.28L1013.96 1105.57L976.707 1105.57L976.707 1101.28ZM971.075 1140.13L1023.36 1140.13L1023.36 1144.54L971.075 1144.54L971.075 1140.13ZM1011.14 1101.28L1016.32 1101.28L1016.32 1107.04C1016.32 1114.46 1016.32 1122.72 1014.15 1135.2L1008.84 1134.69C1011.14 1122.85 1011.14 1114.21 1011.14 1107.04L1011.14 1101.28Z" fill="white"/>
<path d="M1638.88 1089L1638.88 1087.4L1644.88 1080.83C1645.59 1080.06 1646.17 1079.39 1646.62 1078.83C1647.08 1078.25 1647.42 1077.71 1647.64 1077.21C1647.86 1076.7 1647.97 1076.17 1647.97 1075.61C1647.97 1074.97 1647.82 1074.42 1647.51 1073.95C1647.21 1073.48 1646.8 1073.12 1646.27 1072.87C1645.74 1072.61 1645.15 1072.49 1644.49 1072.49C1643.79 1072.49 1643.18 1072.63 1642.66 1072.92C1642.15 1073.21 1641.75 1073.61 1641.47 1074.12C1641.19 1074.64 1641.05 1075.24 1641.05 1075.93L1638.95 1075.93C1638.95 1074.87 1639.2 1073.93 1639.69 1073.13C1640.18 1072.32 1640.85 1071.69 1641.7 1071.24C1642.55 1070.79 1643.5 1070.57 1644.56 1070.57C1645.63 1070.57 1646.57 1070.79 1647.4 1071.24C1648.22 1071.69 1648.86 1072.3 1649.33 1073.06C1649.8 1073.83 1650.03 1074.68 1650.03 1075.61C1650.03 1076.28 1649.91 1076.94 1649.67 1077.57C1649.43 1078.21 1649.02 1078.91 1648.43 1079.7C1647.84 1080.47 1647.03 1081.42 1645.98 1082.54L1641.9 1086.9L1641.9 1087.05L1650.35 1087.05L1650.35 1089L1638.88 1089ZM1659.95 1089.25C1658.61 1089.25 1657.47 1088.88 1656.53 1088.16C1655.59 1087.42 1654.87 1086.36 1654.37 1084.97C1653.88 1083.57 1653.63 1081.89 1653.63 1079.91C1653.63 1077.94 1653.88 1076.27 1654.37 1074.88C1654.88 1073.48 1655.6 1072.41 1656.54 1071.68C1657.49 1070.94 1658.62 1070.57 1659.95 1070.57C1661.27 1070.57 1662.41 1070.94 1663.35 1071.68C1664.3 1072.41 1665.02 1073.48 1665.52 1074.88C1666.02 1076.27 1666.27 1077.94 1666.27 1079.91C1666.27 1081.89 1666.02 1083.57 1665.52 1084.97C1665.03 1086.36 1664.31 1087.42 1663.37 1088.16C1662.43 1088.88 1661.29 1089.25 1659.95 1089.25ZM1659.95 1087.3C1661.27 1087.3 1662.3 1086.66 1663.04 1085.38C1663.77 1084.1 1664.14 1082.28 1664.14 1079.91C1664.14 1078.33 1663.97 1076.99 1663.63 1075.89C1663.3 1074.78 1662.82 1073.94 1662.2 1073.36C1661.57 1072.78 1660.83 1072.49 1659.95 1072.49C1658.64 1072.49 1657.61 1073.14 1656.87 1074.43C1656.13 1075.72 1655.76 1077.55 1655.76 1079.91C1655.76 1081.48 1655.92 1082.82 1656.26 1083.92C1656.59 1085.02 1657.06 1085.86 1657.69 1086.43C1658.31 1087.01 1659.07 1087.3 1659.95 1087.3ZM1669.64 1089L1669.64 1087.4L1675.65 1080.83C1676.35 1080.06 1676.93 1079.39 1677.39 1078.83C1677.84 1078.25 1678.18 1077.71 1678.4 1077.21C1678.62 1076.7 1678.73 1076.17 1678.73 1075.61C1678.73 1074.97 1678.58 1074.42 1678.27 1073.95C1677.97 1073.48 1677.56 1073.12 1677.03 1072.87C1676.5 1072.61 1675.91 1072.49 1675.25 1072.49C1674.56 1072.49 1673.95 1072.63 1673.43 1072.92C1672.91 1073.21 1672.51 1073.61 1672.23 1074.12C1671.95 1074.64 1671.81 1075.24 1671.81 1075.93L1669.71 1075.93C1669.71 1074.87 1669.96 1073.93 1670.45 1073.13C1670.94 1072.32 1671.61 1071.69 1672.46 1071.24C1673.31 1070.79 1674.27 1070.57 1675.33 1070.57C1676.39 1070.57 1677.33 1070.79 1678.16 1071.24C1678.98 1071.69 1679.63 1072.3 1680.09 1073.06C1680.56 1073.83 1680.79 1074.68 1680.79 1075.61C1680.79 1076.28 1680.67 1076.94 1680.43 1077.57C1680.19 1078.21 1679.78 1078.91 1679.19 1079.7C1678.6 1080.47 1677.79 1081.42 1676.75 1082.54L1672.66 1086.9L1672.66 1087.05L1681.11 1087.05L1681.11 1089L1669.64 1089ZM1690.92 1089.25C1689.75 1089.25 1688.71 1089.05 1687.79 1088.64C1686.88 1088.24 1686.15 1087.68 1685.62 1086.97C1685.08 1086.24 1684.79 1085.41 1684.75 1084.45L1686.98 1084.45C1687.03 1085.04 1687.23 1085.55 1687.59 1085.97C1687.94 1086.39 1688.41 1086.72 1688.98 1086.95C1689.55 1087.18 1690.19 1087.3 1690.89 1087.3C1691.67 1087.3 1692.36 1087.16 1692.97 1086.89C1693.57 1086.61 1694.04 1086.24 1694.39 1085.75C1694.73 1085.27 1694.9 1084.7 1694.9 1084.06C1694.9 1083.4 1694.74 1082.81 1694.4 1082.3C1694.07 1081.78 1693.59 1081.38 1692.95 1081.09C1692.31 1080.8 1691.53 1080.65 1690.6 1080.65L1689.15 1080.65L1689.15 1078.7L1690.6 1078.7C1691.33 1078.7 1691.96 1078.57 1692.5 1078.31C1693.05 1078.05 1693.48 1077.68 1693.79 1077.21C1694.11 1076.74 1694.26 1076.18 1694.26 1075.54C1694.26 1074.93 1694.13 1074.39 1693.85 1073.93C1693.58 1073.48 1693.2 1073.12 1692.7 1072.87C1692.21 1072.61 1691.63 1072.49 1690.96 1072.49C1690.33 1072.49 1689.74 1072.6 1689.18 1072.83C1688.63 1073.06 1688.18 1073.39 1687.83 1073.82C1687.49 1074.25 1687.3 1074.76 1687.27 1075.36L1685.14 1075.36C1685.17 1074.41 1685.46 1073.58 1686 1072.86C1686.54 1072.14 1687.24 1071.58 1688.11 1071.17C1688.99 1070.77 1689.95 1070.57 1691 1070.57C1692.12 1070.57 1693.08 1070.8 1693.89 1071.25C1694.69 1071.7 1695.31 1072.3 1695.74 1073.04C1696.18 1073.78 1696.39 1074.58 1696.39 1075.43C1696.39 1076.46 1696.12 1077.33 1695.58 1078.05C1695.05 1078.78 1694.33 1079.28 1693.41 1079.55L1693.41 1079.7C1694.56 1079.89 1695.45 1080.37 1696.1 1081.16C1696.74 1081.94 1697.07 1082.91 1697.07 1084.06C1697.07 1085.05 1696.8 1085.94 1696.26 1086.73C1695.73 1087.51 1695 1088.12 1694.08 1088.57C1693.15 1089.02 1692.1 1089.25 1690.92 1089.25ZM1701.7 1089.14C1701.26 1089.14 1700.89 1088.99 1700.57 1088.67C1700.26 1088.36 1700.1 1087.98 1700.1 1087.54C1700.1 1087.11 1700.26 1086.73 1700.57 1086.42C1700.89 1086.1 1701.26 1085.95 1701.7 1085.95C1702.14 1085.95 1702.51 1086.1 1702.83 1086.42C1703.14 1086.73 1703.3 1087.11 1703.3 1087.54C1703.3 1087.83 1703.22 1088.1 1703.08 1088.34C1702.93 1088.59 1702.74 1088.78 1702.5 1088.93C1702.26 1089.07 1702 1089.14 1701.7 1089.14ZM1720.45 1070.82L1720.45 1089L1718.24 1089L1718.24 1073.13L1718.14 1073.13L1713.7 1076.07L1713.7 1073.84L1718.24 1070.82L1720.45 1070.82ZM1731.6 1089.25C1730.27 1089.25 1729.13 1088.88 1728.19 1088.16C1727.25 1087.42 1726.53 1086.36 1726.03 1084.97C1725.53 1083.57 1725.28 1081.89 1725.28 1079.91C1725.28 1077.94 1725.53 1076.27 1726.03 1074.88C1726.53 1073.48 1727.25 1072.41 1728.2 1071.68C1729.14 1070.94 1730.28 1070.57 1731.6 1070.57C1732.93 1070.57 1734.06 1070.94 1735 1071.68C1735.95 1072.41 1736.67 1073.48 1737.17 1074.88C1737.67 1076.27 1737.93 1077.94 1737.93 1079.91C1737.93 1081.89 1737.68 1083.57 1737.18 1084.97C1736.68 1086.36 1735.96 1087.42 1735.02 1088.16C1734.08 1088.88 1732.94 1089.25 1731.6 1089.25ZM1731.6 1087.3C1732.93 1087.3 1733.96 1086.66 1734.69 1085.38C1735.43 1084.1 1735.79 1082.28 1735.79 1079.91C1735.79 1078.33 1735.63 1076.99 1735.29 1075.89C1734.96 1074.78 1734.48 1073.94 1733.85 1073.36C1733.23 1072.78 1732.48 1072.49 1731.6 1072.49C1730.29 1072.49 1729.26 1073.14 1728.52 1074.43C1727.78 1075.72 1727.41 1077.55 1727.41 1079.91C1727.41 1081.48 1727.58 1082.82 1727.91 1083.92C1728.24 1085.02 1728.72 1085.86 1729.34 1086.43C1729.97 1087.01 1730.72 1087.3 1731.6 1087.3ZM1742.23 1089.14C1741.79 1089.14 1741.41 1088.99 1741.1 1088.67C1740.79 1088.36 1740.63 1087.98 1740.63 1087.54C1740.63 1087.11 1740.79 1086.73 1741.1 1086.42C1741.41 1086.1 1741.79 1085.95 1742.23 1085.95C1742.66 1085.95 1743.04 1086.1 1743.35 1086.42C1743.67 1086.73 1743.82 1087.11 1743.82 1087.54C1743.82 1087.83 1743.75 1088.1 1743.6 1088.34C1743.46 1088.59 1743.27 1088.78 1743.03 1088.93C1742.79 1089.07 1742.52 1089.14 1742.23 1089.14ZM1760.97 1070.82L1760.97 1089L1758.77 1089L1758.77 1073.13L1758.66 1073.13L1754.23 1076.07L1754.23 1073.84L1758.77 1070.82L1760.97 1070.82ZM1772.24 1089.25C1771.49 1089.24 1770.75 1089.09 1770 1088.82C1769.26 1088.55 1768.57 1088.09 1767.96 1087.45C1767.34 1086.8 1766.85 1085.92 1766.48 1084.81C1766.1 1083.7 1765.92 1082.3 1765.92 1080.62C1765.92 1079.01 1766.07 1077.58 1766.37 1076.34C1766.67 1075.09 1767.11 1074.04 1767.68 1073.19C1768.26 1072.33 1768.95 1071.68 1769.76 1071.24C1770.58 1070.79 1771.5 1070.57 1772.52 1070.57C1773.54 1070.57 1774.45 1070.77 1775.24 1071.18C1776.04 1071.58 1776.69 1072.15 1777.19 1072.87C1777.7 1073.59 1778.02 1074.42 1778.17 1075.36L1776 1075.36C1775.8 1074.55 1775.41 1073.87 1774.83 1073.33C1774.25 1072.79 1773.48 1072.52 1772.52 1072.52C1771.11 1072.52 1770 1073.14 1769.19 1074.36C1768.39 1075.59 1767.98 1077.3 1767.98 1079.52L1768.12 1079.52C1768.45 1079.02 1768.84 1078.59 1769.3 1078.23C1769.76 1077.87 1770.27 1077.59 1770.83 1077.4C1771.38 1077.2 1771.97 1077.1 1772.59 1077.1C1773.64 1077.1 1774.59 1077.36 1775.45 1077.88C1776.32 1078.4 1777.01 1079.11 1777.53 1080.02C1778.05 1080.93 1778.31 1081.97 1778.31 1083.14C1778.31 1084.27 1778.06 1085.29 1777.56 1086.23C1777.05 1087.16 1776.35 1087.9 1775.43 1088.45C1774.53 1088.99 1773.46 1089.26 1772.24 1089.25ZM1772.24 1087.3C1772.98 1087.3 1773.65 1087.11 1774.24 1086.74C1774.84 1086.36 1775.31 1085.86 1775.66 1085.24C1776.01 1084.61 1776.18 1083.91 1776.18 1083.14C1776.18 1082.39 1776.01 1081.71 1775.67 1081.09C1775.34 1080.47 1774.88 1079.97 1774.3 1079.61C1773.72 1079.24 1773.06 1079.06 1772.31 1079.06C1771.75 1079.06 1771.22 1079.17 1770.74 1079.39C1770.25 1079.61 1769.83 1079.92 1769.46 1080.3C1769.1 1080.68 1768.81 1081.13 1768.61 1081.62C1768.4 1082.11 1768.3 1082.63 1768.3 1083.18C1768.3 1083.9 1768.47 1084.57 1768.8 1085.2C1769.15 1085.83 1769.61 1086.33 1770.21 1086.72C1770.8 1087.1 1771.48 1087.3 1772.24 1087.3Z" fill="white"/>
</g>
<defs>
<clipPath id="clip0_203_70">
<rect width="1200" height="1800" fill="white" transform="translate(0 1200) rotate(-90)"/>
</clipPath>
</defs>
</svg>
